<mxfile host="app.diagrams.net" agent="Mozilla/5.0 (Windows NT 10.0; Win64; x64) AppleWebKit/537.36 (KHTML, like Gecko) Chrome/138.0.0.0 Safari/537.36" version="27.2.0">
  <diagram name="Page-1" id="RIif-gDYi5K6zud4SCzq">
    <mxGraphModel dx="406" dy="275" grid="1" gridSize="10" guides="1" tooltips="1" connect="1" arrows="1" fold="1" page="1" pageScale="1" pageWidth="850" pageHeight="1100" math="0" shadow="0">
      <root>
        <mxCell id="0" />
        <mxCell id="1" parent="0" />
        <mxCell id="3S9TQO3WpFgLK6pEWjgg-3" style="edgeStyle=orthogonalEdgeStyle;rounded=0;orthogonalLoop=1;jettySize=auto;html=1;entryX=0.5;entryY=0;entryDx=0;entryDy=0;" edge="1" parent="1" source="3S9TQO3WpFgLK6pEWjgg-1" target="3S9TQO3WpFgLK6pEWjgg-2">
          <mxGeometry relative="1" as="geometry" />
        </mxCell>
        <mxCell id="3S9TQO3WpFgLK6pEWjgg-1" value="Start Game" style="ellipse;whiteSpace=wrap;html=1;fontSize=8;" vertex="1" parent="1">
          <mxGeometry x="290" y="20" width="60" height="20" as="geometry" />
        </mxCell>
        <mxCell id="3S9TQO3WpFgLK6pEWjgg-5" style="edgeStyle=orthogonalEdgeStyle;rounded=0;orthogonalLoop=1;jettySize=auto;html=1;entryX=0.5;entryY=0;entryDx=0;entryDy=0;" edge="1" parent="1" source="3S9TQO3WpFgLK6pEWjgg-2" target="3S9TQO3WpFgLK6pEWjgg-4">
          <mxGeometry relative="1" as="geometry">
            <Array as="points">
              <mxPoint x="320" y="110" />
            </Array>
          </mxGeometry>
        </mxCell>
        <mxCell id="3S9TQO3WpFgLK6pEWjgg-7" style="edgeStyle=orthogonalEdgeStyle;rounded=0;orthogonalLoop=1;jettySize=auto;html=1;" edge="1" parent="1" source="3S9TQO3WpFgLK6pEWjgg-2" target="3S9TQO3WpFgLK6pEWjgg-6">
          <mxGeometry relative="1" as="geometry" />
        </mxCell>
        <mxCell id="3S9TQO3WpFgLK6pEWjgg-2" value="Introduction and Player configuration" style="rounded=0;whiteSpace=wrap;html=1;fontSize=8;" vertex="1" parent="1">
          <mxGeometry x="295" y="50" width="50" height="40" as="geometry" />
        </mxCell>
        <mxCell id="3S9TQO3WpFgLK6pEWjgg-16" style="edgeStyle=orthogonalEdgeStyle;rounded=0;orthogonalLoop=1;jettySize=auto;html=1;entryX=0.5;entryY=0;entryDx=0;entryDy=0;" edge="1" parent="1" source="3S9TQO3WpFgLK6pEWjgg-4" target="3S9TQO3WpFgLK6pEWjgg-10">
          <mxGeometry relative="1" as="geometry" />
        </mxCell>
        <mxCell id="3S9TQO3WpFgLK6pEWjgg-18" style="edgeStyle=orthogonalEdgeStyle;rounded=0;orthogonalLoop=1;jettySize=auto;html=1;entryX=0;entryY=1;entryDx=0;entryDy=0;" edge="1" parent="1" source="3S9TQO3WpFgLK6pEWjgg-4" target="3S9TQO3WpFgLK6pEWjgg-2">
          <mxGeometry relative="1" as="geometry">
            <mxPoint x="280" y="90" as="targetPoint" />
            <Array as="points">
              <mxPoint x="280" y="130" />
              <mxPoint x="280" y="90" />
            </Array>
          </mxGeometry>
        </mxCell>
        <mxCell id="3S9TQO3WpFgLK6pEWjgg-4" value="Öffne das Tor. Du drückst vorsichtig dagegen." style="ellipse;whiteSpace=wrap;html=1;fontSize=8;" vertex="1" parent="1">
          <mxGeometry x="285" y="110" width="70" height="40" as="geometry" />
        </mxCell>
        <mxCell id="3S9TQO3WpFgLK6pEWjgg-6" value="Frage Joseph nach einem Plan." style="ellipse;whiteSpace=wrap;html=1;fontSize=8;" vertex="1" parent="1">
          <mxGeometry x="360" y="110" width="70" height="40" as="geometry" />
        </mxCell>
        <mxCell id="3S9TQO3WpFgLK6pEWjgg-8" value="Schleiche unter dem Zaun hindurch." style="ellipse;whiteSpace=wrap;html=1;fontSize=8;" vertex="1" parent="1">
          <mxGeometry x="200" y="110" width="70" height="40" as="geometry" />
        </mxCell>
        <mxCell id="3S9TQO3WpFgLK6pEWjgg-9" style="edgeStyle=orthogonalEdgeStyle;rounded=0;orthogonalLoop=1;jettySize=auto;html=1;exitX=0;exitY=0.5;exitDx=0;exitDy=0;entryX=0.5;entryY=0;entryDx=0;entryDy=0;" edge="1" parent="1" source="3S9TQO3WpFgLK6pEWjgg-2" target="3S9TQO3WpFgLK6pEWjgg-8">
          <mxGeometry relative="1" as="geometry" />
        </mxCell>
        <mxCell id="3S9TQO3WpFgLK6pEWjgg-10" value="&lt;font style=&quot;font-size: 8px;&quot;&gt;Kraft: 10 und geschick: 10&lt;/font&gt;" style="ellipse;whiteSpace=wrap;html=1;" vertex="1" parent="1">
          <mxGeometry x="290" y="170" width="60" height="30" as="geometry" />
        </mxCell>
        <mxCell id="3S9TQO3WpFgLK6pEWjgg-23" value="" style="edgeStyle=orthogonalEdgeStyle;rounded=0;orthogonalLoop=1;jettySize=auto;html=1;entryX=0;entryY=0.5;entryDx=0;entryDy=0;" edge="1" parent="1" source="3S9TQO3WpFgLK6pEWjgg-20" target="3S9TQO3WpFgLK6pEWjgg-22">
          <mxGeometry relative="1" as="geometry" />
        </mxCell>
        <mxCell id="3S9TQO3WpFgLK6pEWjgg-25" style="edgeStyle=orthogonalEdgeStyle;rounded=0;orthogonalLoop=1;jettySize=auto;html=1;entryX=0;entryY=0.5;entryDx=0;entryDy=0;" edge="1" parent="1" source="3S9TQO3WpFgLK6pEWjgg-20" target="3S9TQO3WpFgLK6pEWjgg-24">
          <mxGeometry relative="1" as="geometry" />
        </mxCell>
        <mxCell id="3S9TQO3WpFgLK6pEWjgg-41" style="edgeStyle=orthogonalEdgeStyle;rounded=0;orthogonalLoop=1;jettySize=auto;html=1;entryX=0.946;entryY=0.983;entryDx=0;entryDy=0;entryPerimeter=0;" edge="1" parent="1" source="3S9TQO3WpFgLK6pEWjgg-20" target="3S9TQO3WpFgLK6pEWjgg-2">
          <mxGeometry relative="1" as="geometry">
            <mxPoint x="450" y="40" as="targetPoint" />
            <Array as="points">
              <mxPoint x="470" y="90" />
              <mxPoint x="342" y="90" />
            </Array>
          </mxGeometry>
        </mxCell>
        <mxCell id="3S9TQO3WpFgLK6pEWjgg-20" value="Büro" style="rounded=0;whiteSpace=wrap;html=1;" vertex="1" parent="1">
          <mxGeometry x="450" y="120" width="60" height="20" as="geometry" />
        </mxCell>
        <mxCell id="3S9TQO3WpFgLK6pEWjgg-21" style="edgeStyle=orthogonalEdgeStyle;rounded=0;orthogonalLoop=1;jettySize=auto;html=1;entryX=0.056;entryY=0.517;entryDx=0;entryDy=0;entryPerimeter=0;" edge="1" parent="1">
          <mxGeometry relative="1" as="geometry">
            <mxPoint x="426.63606227849067" y="129.98000000000002" as="sourcePoint" />
            <mxPoint x="450" y="130.02" as="targetPoint" />
            <Array as="points">
              <mxPoint x="446.64" y="129.68" />
            </Array>
          </mxGeometry>
        </mxCell>
        <mxCell id="3S9TQO3WpFgLK6pEWjgg-29" style="edgeStyle=orthogonalEdgeStyle;rounded=0;orthogonalLoop=1;jettySize=auto;html=1;entryX=0;entryY=0.5;entryDx=0;entryDy=0;" edge="1" parent="1" source="3S9TQO3WpFgLK6pEWjgg-22" target="3S9TQO3WpFgLK6pEWjgg-28">
          <mxGeometry relative="1" as="geometry" />
        </mxCell>
        <mxCell id="3S9TQO3WpFgLK6pEWjgg-31" style="edgeStyle=orthogonalEdgeStyle;rounded=0;orthogonalLoop=1;jettySize=auto;html=1;entryX=0.539;entryY=0.067;entryDx=0;entryDy=0;entryPerimeter=0;" edge="1" parent="1" source="3S9TQO3WpFgLK6pEWjgg-22" target="3S9TQO3WpFgLK6pEWjgg-20">
          <mxGeometry relative="1" as="geometry">
            <mxPoint x="480" y="40" as="targetPoint" />
            <Array as="points">
              <mxPoint x="585" y="40" />
              <mxPoint x="482" y="40" />
            </Array>
          </mxGeometry>
        </mxCell>
        <mxCell id="3S9TQO3WpFgLK6pEWjgg-22" value="Versuche die Schublade aufzubrechen." style="ellipse;whiteSpace=wrap;html=1;fontSize=8;" vertex="1" parent="1">
          <mxGeometry x="550" y="60" width="70" height="40" as="geometry" />
        </mxCell>
        <mxCell id="3S9TQO3WpFgLK6pEWjgg-35" style="edgeStyle=orthogonalEdgeStyle;rounded=0;orthogonalLoop=1;jettySize=auto;html=1;entryX=0.5;entryY=1;entryDx=0;entryDy=0;" edge="1" parent="1" source="3S9TQO3WpFgLK6pEWjgg-24" target="3S9TQO3WpFgLK6pEWjgg-20">
          <mxGeometry relative="1" as="geometry">
            <mxPoint x="480" y="180" as="targetPoint" />
            <Array as="points">
              <mxPoint x="585" y="170" />
              <mxPoint x="586" y="170" />
              <mxPoint x="586" y="180" />
              <mxPoint x="480" y="180" />
            </Array>
          </mxGeometry>
        </mxCell>
        <mxCell id="3S9TQO3WpFgLK6pEWjgg-38" style="edgeStyle=orthogonalEdgeStyle;rounded=0;orthogonalLoop=1;jettySize=auto;html=1;entryX=0.504;entryY=-0.046;entryDx=0;entryDy=0;entryPerimeter=0;" edge="1" parent="1" source="3S9TQO3WpFgLK6pEWjgg-24" target="3S9TQO3WpFgLK6pEWjgg-37">
          <mxGeometry relative="1" as="geometry">
            <mxPoint x="640" y="150" as="targetPoint" />
            <Array as="points">
              <mxPoint x="640" y="130" />
            </Array>
          </mxGeometry>
        </mxCell>
        <mxCell id="3S9TQO3WpFgLK6pEWjgg-24" value="&lt;p data-end=&quot;2109&quot; data-start=&quot;2054&quot;&gt;Suche nach dem Schlüssel auf dem Tisch.&lt;/p&gt;" style="ellipse;whiteSpace=wrap;html=1;fontSize=8;" vertex="1" parent="1">
          <mxGeometry x="550" y="110" width="70" height="40" as="geometry" />
        </mxCell>
        <mxCell id="3S9TQO3WpFgLK6pEWjgg-28" value="genug Stärke: 8" style="ellipse;whiteSpace=wrap;html=1;fontSize=8;" vertex="1" parent="1">
          <mxGeometry x="640" y="60" width="70" height="40" as="geometry" />
        </mxCell>
        <mxCell id="3S9TQO3WpFgLK6pEWjgg-33" style="edgeStyle=orthogonalEdgeStyle;rounded=0;orthogonalLoop=1;jettySize=auto;html=1;entryX=0.625;entryY=0;entryDx=0;entryDy=0;entryPerimeter=0;" edge="1" parent="1" source="3S9TQO3WpFgLK6pEWjgg-28">
          <mxGeometry relative="1" as="geometry">
            <mxPoint x="720" y="220" as="targetPoint" />
          </mxGeometry>
        </mxCell>
        <mxCell id="3S9TQO3WpFgLK6pEWjgg-39" style="edgeStyle=orthogonalEdgeStyle;rounded=0;orthogonalLoop=1;jettySize=auto;html=1;entryX=0.5;entryY=0;entryDx=0;entryDy=0;" edge="1" parent="1" source="3S9TQO3WpFgLK6pEWjgg-37">
          <mxGeometry relative="1" as="geometry">
            <mxPoint x="710" y="220" as="targetPoint" />
          </mxGeometry>
        </mxCell>
        <mxCell id="3S9TQO3WpFgLK6pEWjgg-37" value="genug geschick: 8 und intelligenz: 8" style="ellipse;whiteSpace=wrap;html=1;fontSize=8;" vertex="1" parent="1">
          <mxGeometry x="610" y="150" width="70" height="50" as="geometry" />
        </mxCell>
        <mxCell id="3S9TQO3WpFgLK6pEWjgg-40" value="&lt;span style=&quot;font-size: 8px;&quot;&gt;Ihr steht am Haupteingang des Zoos. Das Tor ist verschlossen, doch ihr&lt;/span&gt;" style="rounded=0;whiteSpace=wrap;html=1;" vertex="1" parent="1">
          <mxGeometry x="670" y="220" width="100" height="50" as="geometry" />
        </mxCell>
        <mxCell id="3S9TQO3WpFgLK6pEWjgg-43" value="Benutze den Schlüssel" style="ellipse;whiteSpace=wrap;html=1;fontSize=8;" vertex="1" parent="1">
          <mxGeometry x="580" y="290" width="70" height="40" as="geometry" />
        </mxCell>
        <mxCell id="3S9TQO3WpFgLK6pEWjgg-44" style="edgeStyle=orthogonalEdgeStyle;rounded=0;orthogonalLoop=1;jettySize=auto;html=1;entryX=0.429;entryY=0;entryDx=0;entryDy=0;entryPerimeter=0;" edge="1" parent="1" source="3S9TQO3WpFgLK6pEWjgg-40" target="3S9TQO3WpFgLK6pEWjgg-43">
          <mxGeometry relative="1" as="geometry" />
        </mxCell>
        <mxCell id="3S9TQO3WpFgLK6pEWjgg-45" value="Versuche den Nebenausgang" style="ellipse;whiteSpace=wrap;html=1;fontSize=8;" vertex="1" parent="1">
          <mxGeometry x="700" y="290" width="70" height="40" as="geometry" />
        </mxCell>
        <mxCell id="3S9TQO3WpFgLK6pEWjgg-46" style="edgeStyle=orthogonalEdgeStyle;rounded=0;orthogonalLoop=1;jettySize=auto;html=1;entryX=0.571;entryY=0;entryDx=0;entryDy=0;entryPerimeter=0;" edge="1" parent="1" source="3S9TQO3WpFgLK6pEWjgg-40" target="3S9TQO3WpFgLK6pEWjgg-45">
          <mxGeometry relative="1" as="geometry" />
        </mxCell>
      </root>
    </mxGraphModel>
  </diagram>
</mxfile>
